<?xml version="1.0" encoding="UTF-8"?>
<svg version="1.1" xmlns="http://www.w3.org/2000/svg" width="2048" height="2048">
<path d="M0 0 C675.84 0 1351.68 0 2048 0 C2048 675.84 2048 1351.68 2048 2048 C1372.16 2048 696.32 2048 0 2048 C0 1372.16 0 696.32 0 0 Z " fill="#FEFEFE" transform="translate(0,0)"/>
<path d="M0 0 C1.01280029 -0.029729 2.02560059 -0.05945801 3.0690918 -0.09008789 C11.35091726 -0.15408963 18.07995313 1.27135811 24.6340332 6.5234375 C27.45468877 10.03396906 27.43048753 11.77682396 27.30078125 16.23046875 C27.29286414 17.58137599 27.28572804 18.93228799 27.27929688 20.28320312 C27.23997925 22.38559735 27.18794341 24.48650356 27.11889648 26.58813477 C26.86871648 35.46376775 27.51859717 41.5746236 33.56323242 48.4855957 C38.43013355 52.33172741 43.60655118 52.6176271 49.609375 52.69140625 C50.32861145 52.70840073 51.0478479 52.7253952 51.78887939 52.74290466 C54.06749906 52.79567084 56.34610336 52.83619078 58.625 52.875 C60.91809191 52.91897776 63.21104659 52.96564411 65.50396729 53.01780701 C66.92618396 53.04968966 68.34852256 53.07660289 69.77093506 53.09803772 C74.65144217 53.20072109 74.65144217 53.20072109 76.875 54.3125 C76.875 54.9725 76.875 55.6325 76.875 56.3125 C77.82375 56.580625 78.7725 56.84875 79.75 57.125 C82.875 58.3125 82.875 58.3125 84.875 61.3125 C85.13125917 64.12552681 85.28995731 66.86948135 85.375 69.6875 C85.37143243 84.93381357 85.37143243 84.93381357 92.046875 97.9453125 C98.49427201 102.76708377 104.69732441 102.98115085 112.5 103.4375 C114.74237513 103.58307561 116.98457403 103.73139859 119.2265625 103.8828125 C120.21479004 103.94227051 121.20301758 104.00172852 122.22119141 104.06298828 C124.54837258 104.28179041 126.63388432 104.66866926 128.875 105.3125 C128.875 105.9725 128.875 106.6325 128.875 107.3125 C129.720625 107.51875 130.56625 107.725 131.4375 107.9375 C136.02809835 109.77373934 140.60394274 112.77038548 142.875 117.3125 C143.05359207 120.02161295 143.1793739 122.71351146 143.26953125 125.42578125 C143.33833108 127.08271829 143.4080207 128.73961858 143.47851562 130.39648438 C143.58573913 133.00984266 143.68743139 135.62292064 143.77368164 138.23706055 C143.85932325 140.75931324 143.96877902 143.27963691 144.08203125 145.80078125 C144.10199661 146.57803055 144.12196198 147.35527985 144.14253235 148.15608215 C144.39236665 153.17809262 145.47067498 155.65931708 148.875 159.3125 C148.875 159.9725 148.875 160.6325 148.875 161.3125 C150.19758472 162.00024405 151.53486503 162.65961373 152.875 163.3125 C154.35419922 164.07626953 154.35419922 164.07626953 155.86328125 164.85546875 C160.63471307 166.88725125 165.38385558 166.75148901 170.5 166.8125 C194.43659016 167.51640072 194.43659016 167.51640072 203.125 176.6875 C211.03198201 188.54797301 208.08182913 206.49830965 207.4375 220.125 C207.37876709 221.40540161 207.37876709 221.40540161 207.31884766 222.71166992 C207.27679199 223.51451416 207.23473633 224.3173584 207.19140625 225.14453125 C207.13641968 226.20764526 207.13641968 226.20764526 207.08032227 227.29223633 C206.8686039 229.37543424 206.43159198 231.29637501 205.875 233.3125 C204.555 233.3125 203.235 233.3125 201.875 233.3125 C201.689375 233.910625 201.50375 234.50875 201.3125 235.125 C199.17781912 238.37342742 196.51568644 239.35701057 192.875 240.3125 C188.17034555 240.77137248 183.47460373 240.82448234 178.75 240.875 C162.42292768 240.28960866 162.42292768 240.28960866 147.75 245.6875 C147.13125 246.55375 146.5125 247.42 145.875 248.3125 C145.35566895 248.89281982 144.83633789 249.47313965 144.30126953 250.07104492 C142.41075244 253.04208864 142.3678777 255.29567739 142.1796875 258.80078125 C142.06560547 260.69666992 142.06560547 260.69666992 141.94921875 262.63085938 C141.85060547 264.60795898 141.85060547 264.60795898 141.75 266.625 C141.60375243 269.2253845 141.45538139 271.82565062 141.3046875 274.42578125 C141.24522949 275.57860596 141.18577148 276.73143066 141.12451172 277.91918945 C140.29313697 289.2257233 140.29313697 289.2257233 135.875 293.3125 C127.85792154 298.41924526 119.01642523 298.0366673 109.80151367 298.1496582 C101.76447846 298.27825862 96.11282618 298.53452459 90.29516602 304.43237305 C87.10062932 308.66155081 86.60123199 311.77165127 86.41796875 317.08984375 C86.35673828 318.40791016 86.29550781 319.72597656 86.23242188 321.08398438 C86.14380148 323.16840483 86.06242551 325.25236798 85.99682617 327.33764648 C85.92919098 329.3607275 85.83188662 331.38071204 85.73046875 333.40234375 C85.68559326 334.60753662 85.64071777 335.81272949 85.59448242 337.05444336 C84.67554988 341.21567674 83.18061329 342.68491623 79.875 345.3125 C75.85288724 347.50637969 71.83938883 347.6955897 67.34375 347.875 C66.27344543 347.93022827 66.27344543 347.93022827 65.18151855 347.98657227 C62.14713453 348.14287946 59.111923 348.27899638 56.07666016 348.41699219 C53.85278485 348.52100524 51.62959429 348.63527428 49.40625 348.75 C48.38573547 348.79072632 48.38573547 348.79072632 47.34460449 348.83227539 C40.53863767 349.18553363 35.9866944 351.11021789 31.29785156 356.01611328 C28.43140302 360.64236843 29.09563957 365.97502908 29.25 371.25 C29.58560096 386.1087325 29.58560096 386.1087325 23.875 392.3125 C18.86222788 396.90815093 14.17286152 396.96471653 7.6875 397.0625 C6.72440918 397.08997314 5.76131836 397.11744629 4.76904297 397.14575195 C1.8043827 397.2223613 -1.15968303 397.26946704 -4.125 397.3125 C-5.0329834 397.33296387 -5.9409668 397.35342773 -6.87646484 397.37451172 C-9.41768259 397.43148547 -11.95832752 397.47045455 -14.5 397.5 C-15.2530542 397.51321289 -16.0061084 397.52642578 -16.78198242 397.54003906 C-28.35779936 397.55560319 -28.35779936 397.55560319 -32.71826172 394.02099609 C-37.66034637 387.81225006 -36.80570203 379.54887335 -36.66699219 372.0300293 C-36.62491455 369.62010622 -36.62595063 367.21296532 -36.6328125 364.80273438 C-36.62232511 363.26039736 -36.60938942 361.71807463 -36.59375 360.17578125 C-36.59354858 359.46110184 -36.59334717 358.74642242 -36.59313965 358.01008606 C-36.48952405 353.61766984 -35.77928079 350.82895259 -33.125 347.3125 C-31.2578125 345.80078125 -31.2578125 345.80078125 -29.25 344.625 C-28.26386719 344.03138672 -28.26386719 344.03138672 -27.2578125 343.42578125 C-22.7000658 341.04673764 -19.14882802 340.06814225 -13.9765625 340.0390625 C-12.22085938 340.008125 -12.22085938 340.008125 -10.4296875 339.9765625 C-7.98444483 339.95060451 -5.53910812 339.93232525 -3.09375 339.921875 C5.04991695 339.76079148 9.5779408 338.98468804 15.8359375 333.63671875 C16.30257812 333.09660156 16.76921875 332.55648438 17.25 332 C17.73210938 331.46761719 18.21421875 330.93523437 18.7109375 330.38671875 C22.30993685 323.97373669 21.17037854 314.51827918 21.3046875 307.31835938 C21.51109734 301.03575979 21.96137753 296.13896283 26.703125 291.5390625 C35.98583715 286.29666751 48.27656346 286.88334462 58.61035156 286.69091797 C59.60647461 286.66787598 60.60259766 286.64483398 61.62890625 286.62109375 C62.96417358 286.60260376 62.96417358 286.60260376 64.32641602 286.58374023 C67.19595735 286.27834121 69.303996 285.61999858 71.875 284.3125 C72.535 283.3225 73.195 282.3325 73.875 281.3125 C74.535 281.3125 75.195 281.3125 75.875 281.3125 C77.8031843 273.92112684 78.2889439 266.87000468 78.5 259.25 C78.53867187 258.09822266 78.57734375 256.94644531 78.6171875 255.75976562 C78.71065152 252.94416204 78.79641252 250.1285514 78.875 247.3125 C78.1015625 247.0134375 77.328125 246.714375 76.53125 246.40625 C73.78373804 245.27492155 71.41947906 243.83918744 68.875 242.3125 C63.2512236 239.32555261 56.9156605 239.9252303 50.7109375 239.83398438 C43.65758737 239.62742198 38.63820446 238.75440162 33.1875 233.9375 C26.5483415 225.01955442 26.13750123 212.97233249 25.875 202.3125 C25.81505859 200.66121094 25.81505859 200.66121094 25.75390625 198.9765625 C25.45839125 185.17427352 25.45839125 185.17427352 30.25 179.5 C31.11625 178.778125 31.9825 178.05625 32.875 177.3125 C33.74125 176.508125 33.74125 176.508125 34.625 175.6875 C41.46817696 171.50555852 48.47591386 170.97170534 56.3125 170.9375 C63.16423057 170.73620757 68.98053584 170.31303018 75.23046875 167.25 C79.96634325 161.6704424 79.22697316 152.546164 79.1875 145.625 C79.18548584 144.6661792 79.18347168 143.7073584 79.18139648 142.71948242 C79.05714468 133.86040311 77.68438458 125.74065375 74.875 117.3125 C72.37052484 116.09380071 72.37052484 116.09380071 69.875 115.3125 C69.875 114.6525 69.875 113.9925 69.875 113.3125 C69.04887207 113.28744385 68.22274414 113.2623877 67.37158203 113.23657227 C64.25902127 113.14051633 61.14657829 113.04134978 58.03417969 112.94018555 C56.0436935 112.87640016 54.0530969 112.81609073 52.0625 112.75585938 C31.90215347 112.09402982 31.90215347 112.09402982 28 109.125 C27.29875 108.196875 26.5975 107.26875 25.875 106.3125 C25.153125 105.508125 24.43125 104.70375 23.6875 103.875 C20.03070041 96.68749736 20.00261536 88.25671785 19.4375 80.3125 C18.73123251 72.14852663 15.01047833 67.80180984 8.875 62.625 C4.54837998 59.78565561 0.63318081 59.03726653 -4.4921875 58.78515625 C-6.31556641 58.67977539 -6.31556641 58.67977539 -8.17578125 58.57226562 C-10.71727009 58.44116738 -13.25894048 58.31354093 -15.80078125 58.18945312 C-28.24627992 57.45852701 -28.24627992 57.45852701 -33.125 54.3125 C-35.99268329 49.74796269 -36.56981919 45.81116996 -36.5234375 40.53515625 C-36.52774277 39.44079506 -36.52774277 39.44079506 -36.53213501 38.32432556 C-36.53416669 36.78888162 -36.5286998 35.25341127 -36.51611328 33.71801758 C-36.50006865 31.38498211 -36.51597904 29.05368478 -36.53515625 26.72070312 C-36.5331732 25.22135039 -36.52932826 23.72199872 -36.5234375 22.22265625 C-36.52951019 21.53389908 -36.53558289 20.84514191 -36.5418396 20.13551331 C-36.46294837 14.62266321 -35.28901302 9.82591095 -31.625 5.5703125 C-22.71843241 -1.15600156 -10.73422747 0.16501566 0 0 Z " fill="#0377FF" transform="translate(651.125,624.6875)"/>
<path d="M0 0 C2.4312765 0.00317654 4.86135214 -0.02042699 7.29248047 -0.0456543 C8.86148938 -0.04792648 10.4305015 -0.04863116 11.99951172 -0.04760742 C12.71430695 -0.05681717 13.42910217 -0.06602692 14.16555786 -0.07551575 C22.25410592 -0.00227201 28.591007 2.60248161 34.30419922 8.31567383 C37.62020767 13.51974451 37.76145901 18.02799325 37.86669922 24.00317383 C37.81212887 37.91452202 37.81212887 37.91452202 43.67657471 50.01373291 C46.79401613 52.5073821 50.3133813 52.10232518 54.14794922 52.01489258 C55.41801819 52.02477959 55.41801819 52.02477959 56.71374512 52.03486633 C59.41136919 52.05231617 62.10668531 52.03038496 64.80419922 52.00317383 C67.50125027 51.99185787 70.19761359 51.98924625 72.89465332 52.00361633 C74.56970908 52.01097792 76.24492437 52.00287547 77.9197998 51.97721863 C83.58493652 51.98039114 86.7566098 53.11947606 91.11669922 56.87817383 C92.30419922 58.31567383 92.30419922 58.31567383 92.30419922 60.31567383 C92.96419922 60.31567383 93.62419922 60.31567383 94.30419922 60.31567383 C94.38031124 67.20240189 94.43282518 74.08902132 94.46899414 80.97607422 C94.4840735 83.31856337 94.50454 85.66102433 94.53051758 88.00341797 C94.56693743 91.371897 94.58393435 94.74000247 94.59716797 98.10864258 C94.61265182 99.15465134 94.62813568 100.2006601 94.64408875 101.27836609 C94.64573712 108.41211756 93.46181749 112.43001085 88.36669922 117.56567383 C87.88330078 118.06583008 87.39990234 118.56598633 86.90185547 119.08129883 C82.90961936 122.16576487 77.58815777 121.48241697 72.77685547 121.52661133 C71.08088217 121.55467334 69.38491874 121.58333776 67.68896484 121.61254883 C65.02498586 121.65382416 62.36119273 121.69072821 59.69702148 121.71704102 C57.11908321 121.74468647 54.54197327 121.79054604 51.96435547 121.83911133 C50.77508202 121.84399063 50.77508202 121.84399063 49.56178284 121.84896851 C43.96416728 121.97302562 40.66102647 123.04694016 36.52758789 127.02587891 C31.20683569 134.14254812 31.50460161 141.49665181 31.61669922 150.00317383 C31.62806339 152.09248954 31.63055821 154.18091567 31.61625671 156.2702179 C31.60558844 158.1573472 31.62263627 160.04457403 31.64135742 161.93164062 C31.13757789 166.98804043 29.11862489 171.08162967 25.45263672 174.61254883 C20.33225487 178.73573295 14.24213636 178.37395773 7.92919922 178.56567383 C-5.11248824 178.52601149 -5.11248824 178.52601149 -17.03564453 182.90161133 C-17.56287109 183.49200195 -18.09009766 184.08239258 -18.63330078 184.69067383 C-19.45121094 185.56852539 -19.45121094 185.56852539 -20.28564453 186.46411133 C-24.64856541 192.19271104 -24.02803631 197.79442504 -24.00830078 204.75317383 C-24.02441406 205.88561523 -24.04052734 207.01805664 -24.05712891 208.18481445 C-24.0580957 209.82546875 -24.0580957 209.82546875 -24.05908203 211.49926758 C-24.06206299 212.49498779 -24.06504395 213.49070801 -24.06811523 214.51660156 C-23.534722 218.5266694 -21.84153184 221.16994277 -19.00830078 224.00317383 C-12.59455954 227.64340534 -4.90622401 227.89212449 2.30419922 228.31567383 C3.5784375 228.39688477 3.5784375 228.39688477 4.87841797 228.47973633 C11.16635652 228.69690218 16.4004128 227.4063725 22.30419922 225.31567383 C23.29419922 224.98567383 24.28419922 224.65567383 25.30419922 224.31567383 C26.45440447 222.06823626 26.45440447 222.06823626 27.30419922 219.31567383 C27.81466797 218.03756836 27.81466797 218.03756836 28.33544922 216.73364258 C29.78211502 211.62947896 29.69651493 206.58267355 29.78271484 201.30395508 C30.04562622 193.23706448 32.86890783 188.14866946 38.30419922 182.31567383 C41.31758266 180.46453841 43.87199213 179.97500549 47.37451172 179.68286133 C48.35419922 179.59907227 49.33388672 179.5152832 50.34326172 179.42895508 C51.36162109 179.35032227 52.37998047 179.27168945 53.42919922 179.19067383 C54.92193359 179.06112305 54.92193359 179.06112305 56.44482422 178.92895508 C82.12094982 176.81721107 82.12094982 176.81721107 90.30419922 183.31567383 C95.31384923 188.04700995 95.12046613 193.20703626 95.41210938 199.72875977 C96.12739543 228.53792318 96.12739543 228.53792318 86.83154297 238.96801758 C84.06651963 241.40774406 81.2429336 241.45040106 77.72607422 241.52661133 C76.81929932 241.55287598 75.91252441 241.57914063 74.97827148 241.60620117 C74.01332764 241.63407715 73.04838379 241.66195312 72.05419922 241.69067383 C52.81971915 241.99009754 52.81971915 241.99009754 36.30419922 250.31567383 C35.28884013 253.30322666 35.19303495 256.06416066 35.19873047 259.20239258 C35.18390625 260.14147461 35.16908203 261.08055664 35.15380859 262.0480957 C35.12931612 263.99846971 35.12371615 265.94918407 35.13818359 267.8996582 C34.97747442 275.04391166 33.27012544 280.04899632 28.30419922 285.31567383 C20.69304063 290.28179654 12.07454824 289.94507535 3.30419922 289.31567383 C2.69745361 289.14865967 2.09070801 288.98164551 1.46557617 288.80957031 C-1.26046011 288.18664346 -3.8021139 288.188089 -6.59814453 288.17504883 C-7.73574219 288.15571289 -8.87333984 288.13637695 -10.04541016 288.11645508 C-12.43326141 288.0826586 -14.82138367 288.06437609 -17.20947266 288.06176758 C-25.93677006 287.87408376 -25.93677006 287.87408376 -29.90283203 284.95629883 C-34.02225571 278.88934805 -35.73154421 273.65437192 -35.94189453 266.37426758 C-35.97476563 265.4609668 -36.00763672 264.54766602 -36.04150391 263.60668945 C-36.10282345 261.70056477 -36.16009941 259.79430581 -36.21337891 257.88793945 C-36.24753906 256.97592773 -36.28169922 256.06391602 -36.31689453 255.12426758 C-36.34195068 254.29725342 -36.36700684 253.47023926 -36.39282227 252.61816406 C-36.93955985 248.46322278 -38.20244764 246.69939294 -41.50830078 244.12817383 C-46.30455065 241.40089449 -50.76017131 241.16795304 -56.21142578 240.85083008 C-57.46310547 240.7728418 -58.71478516 240.69485352 -60.00439453 240.61450195 C-62.61619797 240.45789729 -65.22817841 240.30421524 -67.84033203 240.15356445 C-85.1985957 239.05865859 -85.1985957 239.05865859 -89.81689453 235.83520508 C-90.25130859 235.27188477 -90.68572266 234.70856445 -91.13330078 234.12817383 C-91.58576172 233.57774414 -92.03822266 233.02731445 -92.50439453 232.46020508 C-95.7566189 226.60620121 -95.98637488 220.75769201 -95.88330078 214.25317383 C-95.88265625 213.47651367 -95.88201172 212.69985352 -95.88134766 211.8996582 C-95.85649102 208.6379157 -95.73916556 205.5728134 -95.19580078 202.35083008 C-94.76587672 199.7410567 -94.61968724 197.41696697 -94.59033203 194.78442383 C-94.57550781 193.97360352 -94.56068359 193.1627832 -94.54541016 192.32739258 C-94.52067315 190.65308804 -94.51546269 188.97838109 -94.52978516 187.30395508 C-94.41730635 183.01612652 -94.07153207 180.11114898 -91.14501953 176.84692383 C-84.11713735 170.94346157 -74.47435458 171.97069007 -65.82080078 171.81567383 C-52.14512454 172.36466019 -52.14512454 172.36466019 -39.82397461 167.80053711 C-38.21303009 166.07525399 -36.96451269 164.30425048 -35.69580078 162.31567383 C-35.09445312 161.50356445 -35.09445312 161.50356445 -34.48095703 160.67504883 C-31.18535858 155.46776871 -31.32068878 149.93484901 -31.12158203 143.96557617 C-30.73296954 134.69757315 -29.152323 125.35020852 -22.69580078 118.31567383 C-19.02910903 115.87121266 -15.58198172 115.42035502 -11.32080078 114.75317383 C-10.11665527 114.55594727 -10.11665527 114.55594727 -8.88818359 114.35473633 C-4.07408622 113.59491865 0.68410253 113.09123357 5.55419922 112.81567383 C13.09850786 112.32344792 17.93139726 109.68847579 23.30419922 104.31567383 C25.52555905 98.5024881 25.63853559 92.9910006 25.61669922 86.81567383 C25.6328125 85.90430664 25.64892578 84.99293945 25.66552734 84.05395508 C25.66963718 78.35772051 25.03938703 74.34002362 22.30419922 69.31567383 C17.90608161 64.91755622 14.42848117 64.37650964 8.34008789 64.20214844 C6.80077217 64.20230547 5.2614503 64.2078779 3.72216797 64.21801758 C2.90798904 64.21943253 2.09381012 64.22084747 1.25495911 64.2223053 C-1.33283234 64.22788066 -3.9205357 64.24042859 -6.50830078 64.25317383 C-8.26806515 64.25819201 -10.02783089 64.26275436 -11.78759766 64.2668457 C-16.09036572 64.27784202 -20.39306834 64.29508962 -24.69580078 64.31567383 C-29.18266455 73.13277573 -30.20366408 82.29849677 -30.78564453 92.05786133 C-31.31633382 99.10055042 -33.05428353 104.74019451 -38.19580078 109.75317383 C-42.16638332 112.23478792 -45.6863149 112.4598481 -50.31689453 112.63208008 C-51.41839844 112.67397461 -52.51990234 112.71586914 -53.65478516 112.7590332 C-54.80269531 112.79834961 -55.95060547 112.83766602 -57.13330078 112.87817383 C-58.24640625 112.92135742 -59.35951172 112.96454102 -60.50634766 113.0090332 C-63.90257743 113.13292578 -67.29841195 113.2296089 -70.69580078 113.31567383 C-72.48401245 113.37029785 -72.48401245 113.37029785 -74.30834961 113.42602539 C-76.03927856 113.45841309 -76.03927856 113.45841309 -77.80517578 113.49145508 C-78.84512695 113.51506104 -79.88507813 113.53866699 -80.95654297 113.56298828 C-83.90659447 113.29664228 -85.21936151 112.77282624 -87.50830078 110.94067383 C-89.69580078 108.31567383 -89.69580078 108.31567383 -89.69580078 106.31567383 C-90.35580078 106.31567383 -91.01580078 106.31567383 -91.69580078 106.31567383 C-91.84141483 102.29966933 -91.98364072 98.28355887 -92.12304688 94.26733398 C-92.19378432 92.24823107 -92.26702152 90.22921621 -92.34033203 88.21020508 C-92.47703977 84.24568061 -92.58976734 80.28112822 -92.69580078 76.31567383 C-92.76347656 74.38256348 -92.76347656 74.38256348 -92.83251953 72.41040039 C-92.85958984 71.18546875 -92.88666016 69.96053711 -92.91455078 68.69848633 C-92.94484375 67.61196777 -92.97513672 66.52544922 -93.00634766 65.40600586 C-92.50704652 60.43733146 -90.48377719 57.21087487 -87.22705078 53.51098633 C-82.81871415 50.11515558 -77.54855371 50.40778952 -72.19580078 50.19067383 C-70.04174877 50.05505074 -67.88808269 49.91314863 -65.73486328 49.76489258 C-64.69749023 49.69447754 -63.66011719 49.6240625 -62.59130859 49.55151367 C-50.91200228 48.6183596 -50.91200228 48.6183596 -40.89648438 43.07080078 C-38.30662618 39.28501579 -38.68927378 34.5055905 -38.57080078 30.06567383 C-38.26430616 21.2681429 -37.38024154 14.13440748 -31.90673828 6.97583008 C-31.30087891 6.44860352 -30.69501953 5.92137695 -30.07080078 5.37817383 C-29.18521484 4.56026367 -29.18521484 4.56026367 -28.28173828 3.72583008 C-19.82824022 -0.88400799 -9.35651463 -0.02558496 0 0 Z " fill="#0277FF" transform="translate(578.69580078125,678.684326171875)"/>
<path d="M0 0 C9.6083814 5.0468266 17.25880657 12.94788882 21.15625 23.15234375 C22.29645413 28.35188572 22.46628211 33.37608882 22.5 38.6875 C22.50644531 39.66154785 22.51289062 40.6355957 22.51953125 41.63916016 C22.34506983 51.50797273 19.61047041 58.96481525 14 67 C13.4225 67.86625 12.845 68.7325 12.25 69.625 C5.60772415 76.63629118 -3.08791065 80.89367162 -12.75390625 81.43359375 C-14.3566817 81.45054744 -15.95969867 81.45179912 -17.5625 81.4375 C-18.36107422 81.45748047 -19.15964844 81.47746094 -19.98242188 81.49804688 C-27.250826 81.49212316 -32.05567532 78.96288312 -38 75 C-38 86.22 -38 97.44 -38 109 C-49.22 109 -60.44 109 -72 109 C-72 72.37 -72 35.74 -72 -2 C-61.11 -2 -50.22 -2 -39 -2 C-38.505 0.475 -38.505 0.475 -38 3 C-37.18595703 2.47599609 -37.18595703 2.47599609 -36.35546875 1.94140625 C-35.64003906 1.48636719 -34.92460938 1.03132813 -34.1875 0.5625 C-33.47980469 0.11003906 -32.77210938 -0.34242187 -32.04296875 -0.80859375 C-23.64752036 -5.70460094 -8.53376258 -4.00874256 0 0 Z " fill="#020202" transform="translate(974,1031)"/>
<path d="M0 0 C11.22 0 22.44 0 34 0 C34 11.55 34 23.1 34 35 C38.62 32.69 43.24 30.38 48 28 C51.69145424 27.41568129 54.23221888 27.10455341 57.8125 27.3125 C59.03030151 27.35201782 59.03030151 27.35201782 60.27270508 27.39233398 C70.33459754 27.90440248 77.13600407 31.64143668 84 39 C91.02193076 47.89325748 91.29078755 57.08356833 91.1953125 68.03125 C91.1924826 69.26290894 91.18965271 70.49456787 91.18673706 71.7635498 C91.17559202 75.67580102 91.15049749 79.58781862 91.125 83.5 C91.11382966 86.16145498 91.10583833 88.82290777 91.09765625 91.484375 C91.07737767 97.98974454 91.03821703 104.49461246 91 111 C79.78 111 68.56 111 57 111 C56.95101562 107.58140625 56.90203125 104.1628125 56.8515625 100.640625 C56.79755837 97.33101001 56.74024858 94.02146764 56.68261719 90.71191406 C56.64432583 88.4111878 56.60947326 86.11040165 56.578125 83.80957031 C56.5324783 80.50303738 56.47448253 77.19691688 56.4140625 73.890625 C56.40251129 72.86132874 56.39096008 71.83203247 56.37905884 70.77154541 C56.35918915 69.81085144 56.33931946 68.85015747 56.31884766 67.86035156 C56.30552399 67.01651917 56.29220032 66.17268677 56.2784729 65.30328369 C55.97372192 62.78265077 55.32000391 61.15759095 54 59 C50.56297069 56.45405236 47.14953888 56.63600536 43 57 C39.35948053 58.40656434 38.25388069 59.53019165 36.39135742 62.97680664 C34.48541955 67.67363341 34.52284412 72.29817634 34.48828125 77.30859375 C34.47033005 78.27531509 34.45237885 79.24203644 34.43388367 80.23805237 C34.38000489 83.30449147 34.34595691 86.37077692 34.3125 89.4375 C34.27930714 91.5254119 34.24481567 93.61330359 34.20898438 95.70117188 C34.12186318 100.80080063 34.06160242 105.89974467 34 111 C22.78 111 11.56 111 0 111 C0 74.37 0 37.74 0 0 Z " fill="#020202" transform="translate(777,1000)"/>
<path d="M0 0 C11.22 0 22.44 0 34 0 C34.33 17.16 34.66 34.32 35 52 C46.29873128 40.77663447 46.29873128 40.77663447 57 29 C60.45169907 28.36986649 62.91559505 28.16998923 66.3359375 28.31640625 C67.21528961 28.32631088 68.09464172 28.33621552 69.00064087 28.34642029 C71.79383145 28.38543237 74.58300926 28.47321983 77.375 28.5625 C79.27468259 28.59763134 81.17442714 28.62956716 83.07421875 28.65820312 C87.71767869 28.73515012 92.35816046 28.85583365 97 29 C95.51891127 32.4534417 93.57178301 34.64921326 90.89453125 37.265625 C89.66573242 38.47798828 89.66573242 38.47798828 88.41210938 39.71484375 C87.55423828 40.55144531 86.69636719 41.38804688 85.8125 42.25 C78.41306791 49.4958697 71.38136066 56.83185836 65 65 C65.66644531 65.84820313 66.33289062 66.69640625 67.01953125 67.5703125 C70.94401042 72.56510417 74.86848958 77.55989583 78.79296875 82.5546875 C79.24124023 83.12509766 79.68951172 83.69550781 80.15136719 84.28320312 C81.05221774 85.4299774 81.95260671 86.57711441 82.85253906 87.72460938 C85.24636278 90.77566212 87.6494805 93.81876714 90.06640625 96.8515625 C90.56785156 97.48320313 91.06929687 98.11484375 91.5859375 98.765625 C92.54526763 99.97367034 93.50735729 101.17953125 94.47265625 102.3828125 C96.66946178 105.15497186 98.48589462 107.81046773 100 111 C94.36302118 111.34893209 88.73244033 111.60129963 83.0871582 111.76904297 C81.17263262 111.83900206 79.25884323 111.93422332 77.34692383 112.05615234 C61.92067427 113.01450457 61.92067427 113.01450457 57.07949829 109.675354 C53.76438063 106.4502636 51.35916981 102.76854208 49.06904602 98.77371216 C47.39953086 96.00372912 45.37756887 93.61138443 43.3125 91.125 C42.66925781 90.32320312 42.02601562 89.52140625 41.36328125 88.6953125 C40.91339844 88.13585938 40.46351562 87.57640625 40 87 C37.14769219 89.19723233 35.31833983 90.62073205 34.49365234 94.19384766 C34.28468048 96.7457449 34.20559534 99.25146405 34.1875 101.8125 C34.0946875 106.3603125 34.0946875 106.3603125 34 111 C22.78 111 11.56 111 0 111 C0 74.37 0 37.74 0 0 Z " fill="#020202" transform="translate(1253,1000)"/>
<path d="M0 0 C7.25910703 5.97469246 11.25450928 13.2652158 12.31188965 22.72055054 C12.42387974 26.06202443 12.41567357 29.37989366 12.35546875 32.72265625 C12.34980896 33.9278743 12.34414917 35.13309235 12.33831787 36.37483215 C12.3161123 40.1852058 12.26594376 43.99460304 12.21484375 47.8046875 C12.19475839 50.4042832 12.17651122 53.00389378 12.16015625 55.60351562 C12.11971887 61.94207559 12.04139218 68.27855204 11.96484375 74.6171875 C1.73484375 74.6171875 -8.49515625 74.6171875 -19.03515625 74.6171875 C-19.53015625 70.6571875 -19.53015625 70.6571875 -20.03515625 66.6171875 C-20.69515625 67.3596875 -21.35515625 68.1021875 -22.03515625 68.8671875 C-27.28740274 74.04534273 -33.03186992 76.10481294 -40.34301758 76.22460938 C-41.19017334 76.20978516 -42.0373291 76.19496094 -42.91015625 76.1796875 C-43.79276123 76.16873047 -44.67536621 76.15777344 -45.5847168 76.14648438 C-53.61447596 75.87934517 -59.1646982 74.23253062 -65.109375 68.6796875 C-71.50894133 61.8257909 -72.7763202 55.65911745 -72.46875 46.359375 C-71.82847967 40.83343831 -70.04290779 37.43409373 -66.03515625 33.6171875 C-53.43427478 23.7750789 -37.08935304 25.24408527 -22.03515625 25.6171875 C-22.58354687 22.63498622 -22.58354687 22.63498622 -24.03515625 19.6171875 C-30.99357821 16.097284 -40.75008278 16.42147887 -48.12890625 18.48046875 C-50.4908397 19.43566242 -52.75588531 20.48211057 -55.03515625 21.6171875 C-56.02515625 21.9471875 -57.01515625 22.2771875 -58.03515625 22.6171875 C-60.70182292 17.28385417 -63.36848958 11.95052083 -66.03515625 6.6171875 C-66.40527832 5.93881836 -66.77540039 5.26044922 -67.15673828 4.56152344 C-68.03515625 2.6171875 -68.03515625 2.6171875 -68.03515625 -0.3828125 C-47.82470966 -10.81800227 -19.26712597 -14.00612051 0 0 Z " fill="#020202" transform="translate(1517.03515625,1036.3828125)"/>
<path d="M0 0 C7.25910703 5.97469246 11.25450928 13.2652158 12.31188965 22.72055054 C12.42387974 26.06202443 12.41567357 29.37989366 12.35546875 32.72265625 C12.34980896 33.9278743 12.34414917 35.13309235 12.33831787 36.37483215 C12.3161123 40.1852058 12.26594376 43.99460304 12.21484375 47.8046875 C12.19475839 50.4042832 12.17651122 53.00389378 12.16015625 55.60351562 C12.11971887 61.94207559 12.04139218 68.27855204 11.96484375 74.6171875 C1.73484375 74.6171875 -8.49515625 74.6171875 -19.03515625 74.6171875 C-19.53015625 70.6571875 -19.53015625 70.6571875 -20.03515625 66.6171875 C-20.69515625 67.3596875 -21.35515625 68.1021875 -22.03515625 68.8671875 C-27.28740274 74.04534273 -33.03186992 76.10481294 -40.34301758 76.22460938 C-41.19017334 76.20978516 -42.0373291 76.19496094 -42.91015625 76.1796875 C-43.79276123 76.16873047 -44.67536621 76.15777344 -45.5847168 76.14648438 C-53.61447596 75.87934517 -59.1646982 74.23253062 -65.109375 68.6796875 C-71.50894133 61.8257909 -72.7763202 55.65911745 -72.46875 46.359375 C-71.82847967 40.83343831 -70.04290779 37.43409373 -66.03515625 33.6171875 C-53.43427478 23.7750789 -37.08935304 25.24408527 -22.03515625 25.6171875 C-22.58354687 22.63498622 -22.58354687 22.63498622 -24.03515625 19.6171875 C-30.99357821 16.097284 -40.75008278 16.42147887 -48.12890625 18.48046875 C-50.4908397 19.43566242 -52.75588531 20.48211057 -55.03515625 21.6171875 C-56.02515625 21.9471875 -57.01515625 22.2771875 -58.03515625 22.6171875 C-60.70182292 17.28385417 -63.36848958 11.95052083 -66.03515625 6.6171875 C-66.40527832 5.93881836 -66.77540039 5.26044922 -67.15673828 4.56152344 C-68.03515625 2.6171875 -68.03515625 2.6171875 -68.03515625 -0.3828125 C-47.82470966 -10.81800227 -19.26712597 -14.00612051 0 0 Z " fill="#020202" transform="translate(1093.03515625,1036.3828125)"/>
<path d="M0 0 C8.55423753 6.28250778 13.74228337 13.0393501 17.125 23.1875 C17.125 29.7875 17.125 36.3875 17.125 43.1875 C-1.355 43.1875 -19.835 43.1875 -38.875 43.1875 C-35.98421083 48.2621063 -35.98421083 48.2621063 -31.23046875 50.6796875 C-24.63622765 52.10133152 -16.6631118 52.81109567 -10.75 49.125 C-9.80125 48.485625 -8.8525 47.84625 -7.875 47.1875 C-4.3258338 47.49274251 -2.63124038 49.07549479 -0.203125 51.56640625 C0.46074219 52.23994141 1.12460937 52.91347656 1.80859375 53.60742188 C2.49050781 54.31447266 3.17242188 55.02152344 3.875 55.75 C4.57238281 56.46091797 5.26976562 57.17183594 5.98828125 57.90429688 C7.7074658 59.65880714 9.41925872 61.41993352 11.125 63.1875 C8.2947685 69.29781672 2.38636304 72.30479547 -3.625 75 C-10.24376183 77.41839374 -16.5250262 77.4033508 -23.5 77.4375 C-25.04494141 77.4684375 -25.04494141 77.4684375 -26.62109375 77.5 C-39.93200112 77.56697312 -52.10467237 73.70386416 -62.125 64.6875 C-70.77047422 55.47160274 -74.28811424 44.03942172 -74.1484375 31.6640625 C-73.38779483 21.99303426 -69.40451105 13.32915271 -62.875 6.1875 C-45.31888451 -8.79133691 -20.17042997 -12.58122137 0 0 Z " fill="#020202" transform="translate(617.875,1034.8125)"/>
<path d="M0 0 C4.87560136 4.52602994 7.53696169 8.89019452 10 15 C6.0931927 17.04033056 2.17314841 19.05379415 -1.75 21.0625 C-2.86117188 21.64322266 -3.97234375 22.22394531 -5.1171875 22.82226562 C-6.18710938 23.36689453 -7.25703125 23.91152344 -8.359375 24.47265625 C-9.34389648 24.98062744 -10.32841797 25.48859863 -11.34277344 26.01196289 C-14 27 -14 27 -16.19238281 26.84155273 C-19.26080332 25.41302147 -20.92682163 22.60476257 -23 20 C-27.04314376 17.30457083 -30.25108711 17.33547635 -35 18 C-39.06966156 20.07182771 -41.3789552 21.74107322 -43 26 C-43.65328791 32.56681617 -44.16923857 39.53685981 -40 45 C-36.36999929 48.2029418 -32.89004707 48.52270139 -28.21484375 48.3515625 C-24.70324767 47.7941663 -22.63608512 46.32226546 -20 44 C-18.13689678 41.39975951 -18.13689678 41.39975951 -17 39 C-11.38926651 39.93408368 -6.80744858 42.3017354 -1.75 44.8125 C-0.82703125 45.25142578 0.0959375 45.69035156 1.046875 46.14257812 C1.9234375 46.57634766 2.8 47.01011719 3.703125 47.45703125 C4.50395508 47.84866455 5.30478516 48.24029785 6.12988281 48.64379883 C8 50 8 50 8.82910156 52.0246582 C9.20000365 56.31175644 5.53992967 59.81676936 3 63 C-3.09959742 69.90462043 -13.08535262 74.46020035 -22.26733398 75.17700195 C-40.58681365 75.62989168 -54.27970417 74.15366245 -68.25 61.25 C-76.78100863 52.36211651 -79.4628837 41.53821813 -79.24609375 29.5 C-78.45900378 18.30583156 -73.12308827 9.26406136 -65.02734375 1.62890625 C-47.44704048 -12.49630852 -18.09874479 -13.90284202 0 0 Z " fill="#020202" transform="translate(1216,1037)"/>
<path d="M0 0 C4.87560136 4.52602994 7.53696169 8.89019452 10 15 C6.0931927 17.04033056 2.17314841 19.05379415 -1.75 21.0625 C-2.86117187 21.64322266 -3.97234375 22.22394531 -5.1171875 22.82226562 C-6.18710937 23.36689453 -7.25703125 23.91152344 -8.359375 24.47265625 C-9.34389648 24.98062744 -10.32841797 25.48859863 -11.34277344 26.01196289 C-14 27 -14 27 -16.19238281 26.84155273 C-19.26080332 25.41302147 -20.92682163 22.60476257 -23 20 C-27.04314376 17.30457083 -30.25108711 17.33547635 -35 18 C-39.06966156 20.07182771 -41.3789552 21.74107322 -43 26 C-43.65328791 32.56681617 -44.16923857 39.53685981 -40 45 C-36.36999929 48.2029418 -32.89004707 48.52270139 -28.21484375 48.3515625 C-24.70324767 47.7941663 -22.63608512 46.32226546 -20 44 C-18.13689678 41.39975951 -18.13689678 41.39975951 -17 39 C-11.38926651 39.93408368 -6.80744858 42.3017354 -1.75 44.8125 C-0.82703125 45.25142578 0.0959375 45.69035156 1.046875 46.14257812 C1.9234375 46.57634766 2.8 47.01011719 3.703125 47.45703125 C4.50395508 47.84866455 5.30478516 48.24029785 6.12988281 48.64379883 C8 50 8 50 8.82910156 52.0246582 C9.20000365 56.31175644 5.53992967 59.81676936 3 63 C-3.09959742 69.90462043 -13.08535262 74.46020035 -22.26733398 75.17700195 C-40.58681365 75.62989168 -54.27970417 74.15366245 -68.25 61.25 C-76.78100863 52.36211651 -79.4628837 41.53821813 -79.24609375 29.5 C-78.45900378 18.30583156 -73.12308827 9.26406136 -65.02734375 1.62890625 C-47.44704048 -12.49630852 -18.09874479 -13.90284202 0 0 Z " fill="#020202" transform="translate(740,1037)"/>
<path d="M0 0 C11.22 0 22.44 0 34 0 C34 7.59 34 15.18 34 23 C39.61 23 45.22 23 51 23 C51 30.92 51 38.84 51 47 C45.39 47 39.78 47 34 47 C34.08686156 50.91775579 34.19374096 54.83319247 34.3125 58.75 C34.34633789 60.41675781 34.34633789 60.41675781 34.38085938 62.1171875 C34.41630859 63.18710938 34.45175781 64.25703125 34.48828125 65.359375 C34.51446533 66.34389648 34.54064941 67.32841797 34.56762695 68.34277344 C35.06563818 71.40339128 35.80449996 72.82520321 38 75 C41.93375193 75.35761381 45.2183013 75.02230536 49 74 C56.54679215 92.34981442 56.54679215 92.34981442 56 98 C49.52894329 100.87771698 44.16695174 101.46217684 37.125 101.375 C35.73087891 101.39240234 35.73087891 101.39240234 34.30859375 101.41015625 C22.47289781 101.36063451 14.02406129 98.02406129 5.6875 89.6875 C-0.28927639 80.16893019 -0.14629066 69.42305868 -0.0625 58.5625 C-0.05798828 57.44939453 -0.05347656 56.33628906 -0.04882812 55.18945312 C-0.03711207 52.45961204 -0.01917891 49.72979886 0 47 C-3.63 47 -7.26 47 -11 47 C-11 39.08 -11 31.16 -11 23 C-7.37 23 -3.74 23 0 23 C0 15.41 0 7.82 0 0 Z " fill="#010101" transform="translate(465,1011)"/>
<path d="M0 0 C11.22 0 22.44 0 34 0 C34 27.06 34 54.12 34 82 C22.78 82 11.56 82 0 82 C0 54.94 0 27.88 0 0 Z " fill="#030303" transform="translate(1564,1029)"/>
<path d="M0 0 C1.15951172 -0.02900391 2.31902344 -0.05800781 3.51367188 -0.08789062 C10.19624326 -0.13727859 16.00742061 -0.12443417 21.3125 4.3125 C26.62302215 9.75428862 28.01309371 14.79974218 27.9375 22.29296875 C27.89625 23.33066406 27.855 24.36835937 27.8125 25.4375 C27.8021875 26.48292969 27.791875 27.52835938 27.78125 28.60546875 C27.61794945 36.67863979 27.08379416 43.20171795 21.3125 49.3125 C15.72425206 54.35994975 8.55107439 53.52491176 1.4375 53.5625 C0.46941406 53.583125 -0.49867188 53.60375 -1.49609375 53.625 C-8.23469321 53.66167265 -13.31343696 53.14886375 -18.6484375 48.6640625 C-21.39728316 45.30773713 -23.4142817 42.82060194 -23.6875 38.3125 C-24.3475 38.3125 -25.0075 38.3125 -25.6875 38.3125 C-26.57895531 13.46832626 -26.57895531 13.46832626 -20.19140625 5.4296875 C-14.30298126 -0.88458369 -8.0711489 0.06619313 0 0 Z " fill="#0578FF" transform="translate(452.6875,799.6875)"/>
<path d="M0 0 C4.33460571 2.49217577 7.37862946 5.88225892 9.625 10.375 C10.6110026 24.1031901 10.6110026 24.1031901 6.625 29.375 C0.2406131 35.61160017 -3.71483462 36.86070922 -12.74609375 36.77734375 C-18.18260289 36.17458762 -21.588848 34.26932777 -25.375 30.375 C-29.08712963 25.64127612 -30.03692306 20.77538419 -29.75390625 14.83203125 C-28.856465 9.01254108 -26.54576371 4.94733538 -21.8125 1.4375 C-15.40812018 -2.77027739 -6.97245649 -3.20068955 0 0 Z " fill="#030303" transform="translate(1406.375,1075.625)"/>
<path d="M0 0 C4.57401341 2.71733144 7.80000335 6.27501006 9.5 11.375 C10.10316848 17.30615671 9.40241716 20.69330871 6 25.61328125 C3.0584518 29.06806833 -0.2489368 30.95797893 -4.5 32.375 C-11.68149018 32.87964526 -18.29136418 33.30291246 -24.5 29.375 C-28.91527984 25.12064152 -31.29000752 21.89490977 -31.8125 15.625 C-31.72865728 11.05557198 -30.42840724 7.87376562 -27.5 4.375 C-19.95744808 -2.25901726 -9.40879943 -4.33560356 0 0 Z " fill="#040404" transform="translate(1592.5,989.625)"/>
<path d="M0 0 C4.75099056 2.67302252 7.52363919 6.36129306 9.6875 11.3125 C10.72493962 17.73014977 9.38969741 23.01162643 5.6875 28.3125 C1.14674735 32.7368231 -2.98333837 34.4060631 -9.25 34.6875 C-14.79698399 34.55582085 -17.88740893 32.8364399 -21.75 28.81640625 C-26.24793364 23.69233981 -26.66793755 19.62106656 -26.58984375 13.03515625 C-26.05329199 7.76788054 -23.04319435 4.83914615 -19.25 1.5 C-13.43072321 -2.83350399 -6.53360555 -3.03433366 0 0 Z " fill="#F1F1F1" transform="translate(1654.3125,1076.6875)"/>
<path d="M0 0 C4.7086925 4.7086925 7.77322419 8.78049383 8 15.625 C7.69197191 20.79039419 6.59108955 24.44279385 2.8125 28.16015625 C-2.72273069 33.03807829 -6.01424539 33.85748119 -13.44921875 33.77734375 C-17.93814144 33.36925987 -19.96107573 32.30164838 -23.5 29.5 C-27.67729235 24.11349144 -28.92779504 19.83078923 -28.83984375 13.13671875 C-28.08278063 7.26295316 -24.92918811 3.69099009 -20.5 0 C-14.26348436 -3.07028462 -6.24196806 -2.67512917 0 0 Z " fill="#FBFDFF" transform="translate(835.5,813.5)"/>
<path d="M0 0 C4.48288058 2.28373161 6.79697531 4.51776533 9 9 C9.83014459 15.50279925 10.14334395 22.61365287 6 28 C2.1238119 31.42546855 -0.96815049 32.6797081 -6.04296875 32.37890625 C-9.47557227 31.71431036 -11.43384024 30.32744722 -14 28 C-17.48384927 22.30971286 -17.8700049 16.57337034 -17 10 C-15.73025922 6.23173704 -13.78130055 3.67278659 -10.75 1.0625 C-7.09609028 -0.34923785 -3.82830209 -0.67558272 0 0 Z " fill="#FBFBFB" transform="translate(953,1054)"/>
<path d="M0 0 C3.52062388 2.19061041 5.51835618 4.15165964 7 8 C7.30078125 11.27734375 7.30078125 11.27734375 7.3125 14.9375 C7.33763672 16.74541016 7.33763672 16.74541016 7.36328125 18.58984375 C6.97499566 22.2347182 6.16576162 24.08393767 4 27 C0.58071806 29.56446145 -2.8501922 29.29641484 -7 29 C-11.19164092 27.40055807 -12.42329504 25.2379523 -14.23828125 21.28515625 C-15.94137946 16.17586163 -15.61219485 11.70770142 -13.8125 6.6875 C-10.03711921 1.08952159 -6.85153133 -0.97879019 0 0 Z " fill="#E2E2E2" transform="translate(1538,925)"/>
<path d="M0 0 C0.66 -0.66 1.32 -1.32 2 -2 C2.14553599 1.89543877 2.23415059 5.79017651 2.3125 9.6875 C2.35439453 10.79029297 2.39628906 11.89308594 2.43945312 13.02929688 C2.56248821 21.17421944 2.56248821 21.17421944 -0.203125 25.234375 C-4.49605473 27.94443678 -8.08440872 27.93669783 -13 27 C-15.625 25 -15.625 25 -17 23 C-16.154375 23.33 -15.30875 23.66 -14.4375 24 C-10.67809033 25.09364645 -7.89262779 25.4325142 -4 25 C-1.43661311 23.52006844 -1.43661311 23.52006844 0 21 C0.33448259 17.832168 0.33448259 17.832168 0 15 C-0.474375 15.495 -0.94875 15.99 -1.4375 16.5 C-5.22043359 18.71440015 -8.72164755 18.83889264 -13 18 C-15.75569447 15.81840855 -17.43588747 14.12822506 -19 11 C-19.12572207 6.34828351 -18.90680787 2.98033283 -15.6875 -0.5 C-9.93145184 -3.71267804 -5.99586919 -2.99793459 0 0 Z " fill="#CECECE" transform="translate(1196,935)"/>
<path d="M0 0 C0.33 0 0.66 0 1 0 C1 10.23 1 20.46 1 31 C0.34 30.01 -0.32 29.02 -1 28 C-1.680625 28.495 -2.36125 28.99 -3.0625 29.5 C-6.70247525 31.35871077 -8.95462873 31.43343264 -13 31 C-15.82275936 29.74544028 -17.46288541 28.71615278 -19.3125 26.25 C-20.76826042 21.48569317 -20.57896125 18.09589093 -18.25 13.6875 C-14.96359018 9.76206605 -14.96359018 9.76206605 -12 9 C-6.91943644 9.27217305 -5.18237088 9.86322184 -1 13 C-0.67 8.71 -0.34 4.42 0 0 Z " fill="#D1D1D1" transform="translate(1483,923)"/>
<path d="M0 0 C0.33 0 0.66 0 1 0 C1.33 3.96 1.66 7.92 2 12 C2.99 11.01 3.98 10.02 5 9 C9.27526773 8.03461696 11.71873776 7.5159676 15.8125 9.0625 C18.6040399 11.53500677 19.77776186 13.46908981 21 17 C20.90680178 22.3122988 19.69051529 25.19765092 16 29 C12.82253509 30.58873246 9.45987798 30.41026221 6 30 C3.5 28.5 3.5 28.5 2 27 C1.34 27.99 0.68 28.98 0 30 C0 20.1 0 10.2 0 0 Z " fill="#D6D6D6" transform="translate(1347,924)"/>
<path d="M0 0 C3.35211493 2.18616191 4.72686604 3.18059812 6 7 C6.37066773 12.00401435 6.09881835 14.98301324 3 19 C-0.71042531 21.47361688 -3.69862675 21.54607278 -8 21 C-10.87472735 19.75011855 -12.44101438 18.74531416 -14.3125 16.25 C-15.76826042 11.48569317 -15.57896125 8.09589093 -13.25 3.6875 C-9.06939574 -1.30599953 -6.35651227 -1.56124863 0 0 Z " fill="#DDDDDD" transform="translate(1167,933)"/>
<path d="M0 0 C3.35211493 2.18616191 4.72686604 3.18059812 6 7 C6.37066773 12.00401435 6.09881835 14.98301324 3 19 C-0.71042531 21.47361688 -3.69862675 21.54607278 -8 21 C-10.87472735 19.75011855 -12.44101438 18.74531416 -14.3125 16.25 C-15.76826042 11.48569317 -15.57896125 8.09589093 -13.25 3.6875 C-9.06939574 -1.30599953 -6.35651227 -1.56124863 0 0 Z " fill="#DDDDDD" transform="translate(1131,933)"/>
<path d="M0 0 C3.35211493 2.18616191 4.72686604 3.18059812 6 7 C6.37066773 12.00401435 6.09881835 14.98301324 3 19 C-0.71042531 21.47361688 -3.69862675 21.54607278 -8 21 C-10.87472735 19.75011855 -12.44101438 18.74531416 -14.3125 16.25 C-15.76826042 11.48569317 -15.57896125 8.09589093 -13.25 3.6875 C-9.06939574 -1.30599953 -6.35651227 -1.56124863 0 0 Z " fill="#DDDDDD" transform="translate(952,933)"/>
<path d="M0 0 C4.1394418 1.74776432 6.49808225 4.29345518 9 8 C9 8.99 9 9.98 9 11 C0.42 11 -8.16 11 -17 11 C-15.91910497 5.59552487 -14.98080159 4.49533798 -11 1 C-7.54849768 -0.72575116 -3.7810938 -0.36104194 0 0 Z " fill="#EDEDED" transform="translate(595,1051)"/>
<path d="M0 0 C11.33429395 -0.49279539 11.33429395 -0.49279539 14.40625 1.78125 C16 4 16 4 15.75 7.75 C15.5025 8.8225 15.255 9.895 15 11 C14.01 11.33 13.02 11.66 12 12 C12.495 12.94875 12.99 13.8975 13.5 14.875 C15 18 15 18 15 20 C12.00675737 18.9024777 11.15389099 18.32317108 9.75 15.375 C9.5025 14.59125 9.255 13.8075 9 13 C6.69 13 4.38 13 2 13 C2 15.31 2 17.62 2 20 C1.34 20 0.68 20 0 20 C0 13.4 0 6.8 0 0 Z " fill="#070707" transform="translate(1639,1083)"/>
<path d="M0 0 C4.75099056 2.67302252 7.52363919 6.36129306 9.6875 11.3125 C10.72493962 17.73014977 9.38969741 23.01162643 5.6875 28.3125 C1.14674735 32.7368231 -2.98333837 34.4060631 -9.25 34.6875 C-14.79698399 34.55582085 -17.88740893 32.8364399 -21.75 28.81640625 C-26.24793364 23.69233981 -26.66793755 19.62106656 -26.58984375 13.03515625 C-26.05329199 7.76788054 -23.04319435 4.83914615 -19.25 1.5 C-13.43072321 -2.83350399 -6.53360555 -3.03433366 0 0 Z M-23.3125 7.4375 C-25.10805129 12.59970995 -25.38255959 18.27243327 -23.55078125 23.4765625 C-21.36052086 27.54542567 -18.85915979 30.31202651 -14.5625 32 C-8.26900618 32.87409636 -3.70742453 32.90911636 1.6875 29.3125 C5.66281446 25.38016191 7.56583433 22.16790151 7.9375 16.5 C7.85107285 11.78107777 6.65160765 8.29807331 3.2578125 4.8671875 C-1.31300777 0.88761762 -5.00658075 -0.10239223 -10.89453125 -0.03515625 C-16.07623566 0.70987072 -19.80567974 3.71150347 -23.3125 7.4375 Z " fill="#232323" transform="translate(1654.3125,1076.6875)"/>
<path d="M0 0 C0.69738281 0.01353516 1.39476562 0.02707031 2.11328125 0.04101562 C3.82585541 0.0762055 5.53802941 0.13000845 7.25 0.1875 C7.54074838 5.65816038 7.54074838 5.65816038 6.2265625 8.05078125 C2.74859306 11.78004906 1.52475306 13.08469733 -3.625 13.5 C-6.66807647 13.4502042 -7.60994874 13.27853332 -10.25 11.5625 C-12.19405832 8.48440766 -12.358676 6.76347151 -11.75 3.1875 C-8.3678082 -0.46800023 -4.65831971 -0.171715 0 0 Z " fill="#F4F4F4" transform="translate(1488.75,1078.8125)"/>
<path d="M0 0 C0.69738281 0.01353516 1.39476562 0.02707031 2.11328125 0.04101562 C3.82585541 0.0762055 5.53802941 0.13000845 7.25 0.1875 C7.54074838 5.65816038 7.54074838 5.65816038 6.2265625 8.05078125 C2.74859306 11.78004906 1.52475306 13.08469733 -3.625 13.5 C-6.66807647 13.4502042 -7.60994874 13.27853332 -10.25 11.5625 C-12.19405832 8.48440766 -12.358676 6.76347151 -11.75 3.1875 C-8.3678082 -0.46800023 -4.65831971 -0.171715 0 0 Z " fill="#F4F4F4" transform="translate(1064.75,1078.8125)"/>
<path d="M0 0 C2.32835744 1.83940237 3.3565613 3.41033901 5 6 C5 7.65 5 9.3 5 11 C-0.94 11 -6.88 11 -13 11 C-13 12.65 -13 14.3 -13 16 C-15 14 -15 14 -15.375 10.75 C-14.93501694 6.35016944 -13.8182654 4.36626145 -11 1 C-7.45004723 -1.81547978 -4.21270896 -1.1825148 0 0 Z " fill="#E5E5E5" transform="translate(1454,933)"/>
<path d="M0 0 C2.32835744 1.83940237 3.3565613 3.41033901 5 6 C5 7.65 5 9.3 5 11 C-0.94 11 -6.88 11 -13 11 C-13 12.65 -13 14.3 -13 16 C-15 14 -15 14 -15.375 10.75 C-14.93501694 6.35016944 -13.8182654 4.36626145 -11 1 C-7.45004723 -1.81547978 -4.21270896 -1.1825148 0 0 Z " fill="#E5E5E5" transform="translate(1276,933)"/>
<path d="M0 0 C2.32835744 1.83940237 3.3565613 3.41033901 5 6 C5 7.65 5 9.3 5 11 C-0.94 11 -6.88 11 -13 11 C-13 12.65 -13 14.3 -13 16 C-15 14 -15 14 -15.375 10.75 C-14.93501694 6.35016944 -13.8182654 4.36626145 -11 1 C-7.45004723 -1.81547978 -4.21270896 -1.1825148 0 0 Z " fill="#E5E5E5" transform="translate(1030,933)"/>
<path d="M0 0 C0.66 0.33 1.32 0.66 2 1 C2 6.94 2 12.88 2 19 C1.67 18.34 1.34 17.68 1 17 C0.505 17.33 0.01 17.66 -0.5 18 C-4.21669939 19.48667975 -6.9941956 19.31792098 -11 19 C-13 17.875 -13 17.875 -14 16 C-14.4375 13 -14.4375 13 -14 10 C-11.73357995 7.7229644 -10.42027204 7.04402291 -7.203125 6.70703125 C-6.22859375 6.74183594 -5.2540625 6.77664063 -4.25 6.8125 C-2.77273438 6.85310547 -2.77273438 6.85310547 -1.265625 6.89453125 C-0.14414063 6.94673828 -0.14414063 6.94673828 1 7 C0.67 4.69 0.34 2.38 0 0 Z " fill="#C3C3C3" transform="translate(1335,935)"/>
<path d="M0 0 C0.66 0.33 1.32 0.66 2 1 C2 6.94 2 12.88 2 19 C1.67 18.34 1.34 17.68 1 17 C0.505 17.33 0.01 17.66 -0.5 18 C-4.21669939 19.48667975 -6.9941956 19.31792098 -11 19 C-13 17.875 -13 17.875 -14 16 C-14.4375 13 -14.4375 13 -14 10 C-11.73357995 7.7229644 -10.42027204 7.04402291 -7.203125 6.70703125 C-6.22859375 6.74183594 -5.2540625 6.77664063 -4.25 6.8125 C-2.77273438 6.85310547 -2.77273438 6.85310547 -1.265625 6.89453125 C-0.14414062 6.94673828 -0.14414062 6.94673828 1 7 C0.67 4.69 0.34 2.38 0 0 Z " fill="#C3C3C3" transform="translate(872,935)"/>
<path d="M0 0 C1.258125 -0.04125 2.51625 -0.0825 3.8125 -0.125 C4.52019531 -0.14820313 5.22789063 -0.17140625 5.95703125 -0.1953125 C8 0 8 0 11 2 C11.3125 4.5 11.3125 4.5 11 7 C9 9 9 9 6.8359375 9.1953125 C4.55729167 9.13020833 2.27864583 9.06510417 0 9 C0 6.03 0 3.06 0 0 Z " fill="#F4F4F4" transform="translate(1641,1085)"/>
<path d="M0 0 C0.66 0 1.32 0 2 0 C2.55063852 6.60766221 1.84763983 11.49087934 -2 17 C-7.50099105 22.35994 -12.36361653 23.22107116 -19.79296875 23.265625 C-22 23 -22 23 -24 21 C-21.17392503 20.05797501 -19.1719348 20.02671178 -16.125 20.125 C-10.940538 20.17318273 -7.66354573 18.43249772 -3.75 15.0625 C-1.06065571 10.35614749 -0.64585105 5.32827115 0 0 Z " fill="#262626" transform="translate(1662,1088)"/>
<path d="M0 0 C0.66 0 1.32 0 2 0 C2 2.31 2 4.62 2 7 C3.98 7 5.96 7 8 7 C8 7.66 8 8.32 8 9 C6.02 9 4.04 9 2 9 C2 11.64 2 14.28 2 17 C1.34 17 0.68 17 0 17 C0 14.36 0 11.72 0 9 C-5.28 9 -10.56 9 -16 9 C-15.67 8.01 -15.34 7.02 -15 6 C-10.05 6.33 -5.1 6.66 0 7 C0 4.69 0 2.38 0 0 Z " fill="#919191" transform="translate(1588,937)"/>
<path d="M0 0 C1.5 1.1875 1.5 1.1875 3 3 C3 4.65 3 6.3 3 8 C-2.94 8 -8.88 8 -15 8 C-15 9.65 -15 11.3 -15 13 C-17 11 -17 11 -17.25 7.5 C-17 4 -17 4 -15 2 C-15 3.32 -15 4.64 -15 6 C-9.39 6 -3.78 6 2 6 C1.34 4.02 0.68 2.04 0 0 Z " fill="#888888" transform="translate(1456,936)"/>
<path d="M0 0 C1.5 1.1875 1.5 1.1875 3 3 C3 4.65 3 6.3 3 8 C-2.94 8 -8.88 8 -15 8 C-15 9.65 -15 11.3 -15 13 C-17 11 -17 11 -17.25 7.5 C-17 4 -17 4 -15 2 C-15 3.32 -15 4.64 -15 6 C-9.39 6 -3.78 6 2 6 C1.34 4.02 0.68 2.04 0 0 Z " fill="#888888" transform="translate(1278,936)"/>
<path d="M0 0 C1.5 1.1875 1.5 1.1875 3 3 C3 4.65 3 6.3 3 8 C-2.94 8 -8.88 8 -15 8 C-15 9.65 -15 11.3 -15 13 C-17 11 -17 11 -17.25 7.5 C-17 4 -17 4 -15 2 C-15 3.32 -15 4.64 -15 6 C-9.39 6 -3.78 6 2 6 C1.34 4.02 0.68 2.04 0 0 Z " fill="#888888" transform="translate(1032,936)"/>
<path d="M0 0 C0.79921875 0.00902344 1.5984375 0.01804687 2.421875 0.02734375 C3.02515625 0.03894531 3.6284375 0.05054688 4.25 0.0625 C3.92 0.7225 3.59 1.3825 3.25 2.0625 C-0.38 2.0625 -4.01 2.0625 -7.75 2.0625 C-8.41 3.3825 -9.07 4.7025 -9.75 6.0625 C-11.4765625 7.765625 -11.4765625 7.765625 -13.375 9.3125 C-14.00664063 9.83328125 -14.63828125 10.3540625 -15.2890625 10.890625 C-15.77117188 11.27734375 -16.25328125 11.6640625 -16.75 12.0625 C-16.75 9.0625 -16.75 9.0625 -15.140625 7.0546875 C-14.43421875 6.35601563 -13.7278125 5.65734375 -13 4.9375 C-12.30390625 4.23367188 -11.6078125 3.52984375 -10.890625 2.8046875 C-7.39943171 -0.03668514 -4.38705821 -0.06451556 0 0 Z " fill="#BFDDFF" transform="translate(697.75,972.9375)"/>
<path d="M0 0 C0.33 0 0.66 0 1 0 C0.67 2.31 0.34 4.62 0 7 C-0.99 7.33 -1.98 7.66 -3 8 C-2.505 8.94875 -2.01 9.8975 -1.5 10.875 C0 14 0 14 0 16 C-3.16115776 14.63016497 -3.9927092 14.0109362 -6 11 C-5.875 9 -5.875 9 -5 7 C-3.66666667 6 -2.33333333 5 -1 4 C-0.20376178 1.90584196 -0.20376178 1.90584196 0 0 Z " fill="#161616" transform="translate(1654,1087)"/>
<path d="M0 0 C-1.27875 0.0825 -2.5575 0.165 -3.875 0.25 C-6.06001747 0.47264942 -6.06001747 0.47264942 -8 1 C-9.40854666 2.81701858 -9.40854666 2.81701858 -10 5 C-11.5 6.75 -11.5 6.75 -13 8 C-13.66 8 -14.32 8 -15 8 C-15.33 9.32 -15.66 10.64 -16 12 C-16.33 11.34 -16.66 10.68 -17 10 C-15.19658034 5.39126086 -13.16605469 2.67817801 -9 0 C-5.62933298 -1.06874808 -3.35053994 -1.11684665 0 0 Z " fill="#459BFF" transform="translate(568,795)"/>
<path d="M0 0 C0.33 0 0.66 0 1 0 C1.15855469 0.80824219 1.31710937 1.61648438 1.48046875 2.44921875 C2.85118271 8.72724016 3.7788837 12.84988191 9 17 C9.66 17.99 10.32 18.98 11 20 C7.49490749 19.43736042 6.04731992 18.34814818 3.8125 15.625 C3.30332031 15.01914063 2.79414062 14.41328125 2.26953125 13.7890625 C0.05986627 10.67513462 -0.11603046 8.00610192 -0.0625 4.3125 C-0.05347656 3.50425781 -0.04445313 2.69601562 -0.03515625 1.86328125 C-0.02355469 1.24839844 -0.01195312 0.63351562 0 0 Z " fill="#161616" transform="translate(1628,1089)"/>
<path d="M0 0 C0.33 2.31 0.66 4.62 1 7 C0.01 7.495 0.01 7.495 -1 8 C-1.33 6.35 -1.66 4.7 -2 3 C-5.3 2.34 -8.6 1.68 -12 1 C-12 0.67 -12 0.34 -12 0 C-7.66726186 -0.92844389 -4.33273814 -0.92844389 0 0 Z " fill="#121212" transform="translate(1653,1084)"/>
<path d="M0 0 C-2.64738916 1.4606285 -3.89448334 2 -7 2 C-7.2475 2.61875 -7.495 3.2375 -7.75 3.875 C-9.20628639 6.35068687 -10.37812506 6.95125002 -13 8 C-13 9.65 -13 11.3 -13 13 C-13.33 13 -13.66 13 -14 13 C-14.43285079 9.97004449 -14.61576835 7.85034677 -12.76953125 5.30078125 C-8.72224933 1.17355302 -5.89398682 -0.15929694 0 0 Z " fill="#3A95FF" transform="translate(499,852)"/>
<path d="M0 0 C-1.28519565 2.86697492 -2.57129254 4.97607712 -5 7 C-5.66 7 -6.32 7 -7 7 C-7 8.32 -7 9.64 -7 11 C-7.66 10.67 -8.32 10.34 -9 10 C-7.6834994 5.81113445 -4.97532335 0 0 0 Z " fill="#3A95FF" transform="translate(552,683)"/>
<path d="M0 0 C-1.04874998 2.62187494 -1.64931313 3.79371361 -4.125 5.25 C-4.74375 5.4975 -5.3625 5.745 -6 6 C-6 6.66 -6 7.32 -6 8 C-6.66 8 -7.32 8 -8 8 C-6.48291727 4.46014029 -4.24676932 0 0 0 Z " fill="#B5D7FF" transform="translate(747,925)"/>
<path d="M0 0 C2.64 0 5.28 0 8 0 C8 0.33 8 0.66 8 1 C6.02 1 4.04 1 2 1 C1.731875 1.639375 1.46375 2.27875 1.1875 2.9375 C0 5 0 5 -3 6 C-2 4 -1 2 0 0 Z " fill="#C7E0FF" transform="translate(554,743)"/>
<path d="M0 0 C0.33 0 0.66 0 1 0 C0.67 2.31 0.34 4.62 0 7 C-0.99 7.33 -1.98 7.66 -3 8 C-3.33 8.66 -3.66 9.32 -4 10 C-3.625 7.5625 -3.625 7.5625 -3 5 C-2.34 4.67 -1.68 4.34 -1 4 C-0.34786708 1.97536745 -0.34786708 1.97536745 0 0 Z " fill="#2F2F2F" transform="translate(1654,1087)"/>
</svg>
